HIERARCHY
ROOT Hips
{
	OFFSET 0.00000 0.00000 0.00000
	CHANNELS 6 Xposition Yposition Zposition Zrotation Yrotation Xrotation 
	JOINT LHipJoint
	{
		OFFSET 0 0 0
		CHANNELS 3 Zrotation Yrotation Xrotation
		JOINT LeftUpLeg
		{
			OFFSET 1.58895 -1.83665 0.71753
			CHANNELS 3 Zrotation Yrotation Xrotation
			JOINT LeftLeg
			{
				OFFSET 2.50528 -6.88321 0.00000
				CHANNELS 3 Zrotation Yrotation Xrotation
				JOINT LeftFoot
				{
					OFFSET 2.63244 -7.23257 0.00000
					CHANNELS 3 Zrotation Yrotation Xrotation
					JOINT LeftToeBase
					{
						OFFSET 0.23691 -0.65090 1.72750
						CHANNELS 3 Zrotation Yrotation Xrotation
						End Site
						{
							OFFSET 0.00000 -0.00000 0.92561
						}
					}
				}
			}
		}
	}
	JOINT RHipJoint
	{
		OFFSET 0 0 0
		CHANNELS 3 Zrotation Yrotation Xrotation
		JOINT RightUpLeg
		{
			OFFSET -1.51435 -1.83665 0.71753
			CHANNELS 3 Zrotation Yrotation Xrotation
			JOINT RightLeg
			{
				OFFSET -2.54551 -6.99375 0.00000
				CHANNELS 3 Zrotation Yrotation Xrotation
				JOINT RightFoot
				{
					OFFSET -2.66027 -7.30903 0.00000
					CHANNELS 3 Zrotation Yrotation Xrotation
					JOINT RightToeBase
					{
						OFFSET -0.22981 -0.63138 2.03959
						CHANNELS 3 Zrotation Yrotation Xrotation
						End Site
						{
							OFFSET -0.00000 -0.00000 1.07060
						}
					}
				}
			}
		}
	}
	JOINT LowerBack
	{
		OFFSET 0 0 0
		CHANNELS 3 Zrotation Yrotation Xrotation
		JOINT Spine
		{
			OFFSET -0.02651 1.86275 -0.11152
			CHANNELS 3 Zrotation Yrotation Xrotation
			JOINT Spine1
			{
				OFFSET 0.01019 1.86224 0.04087
				CHANNELS 3 Zrotation Yrotation Xrotation
				JOINT Neck
				{
					OFFSET 0 0 0
					CHANNELS 3 Zrotation Yrotation Xrotation
					JOINT Neck1
					{
						OFFSET -0.01926 1.80512 0.08867
						CHANNELS 3 Zrotation Yrotation Xrotation
						JOINT Head
						{
							OFFSET 0.05516 1.76451 -0.38475
							CHANNELS 3 Zrotation Yrotation Xrotation
							End Site
							{
								OFFSET 0.01592 1.82587 -0.14001
							}
						}
					}
				}
				JOINT LeftShoulder
				{
					OFFSET 0 0 0
					CHANNELS 3 Zrotation Yrotation Xrotation
					JOINT LeftArm
					{
						OFFSET 3.47116 1.51376 0.14491
						CHANNELS 3 Zrotation Yrotation Xrotation
						JOINT LeftForeArm
						{
							OFFSET 4.78095 -0.00000 0.00000
							CHANNELS 3 Zrotation Yrotation Xrotation
							JOINT LeftHand
							{
								OFFSET 3.58615 -0.00000 -0.00000
								CHANNELS 3 Zrotation Yrotation Xrotation
								JOINT LeftFingerBase
								{
									OFFSET 0 0 0
									CHANNELS 3 Zrotation Yrotation Xrotation
									JOINT LeftHandIndex1
									{
										OFFSET 0.65981 -0.00000 0.00000
										CHANNELS 3 Zrotation Yrotation Xrotation
										End Site
										{
											OFFSET 0.53196 -0.00000 0.00000
										}
									}
								}
								JOINT LThumb
								{
									OFFSET 0 0 0
									CHANNELS 3 Zrotation Yrotation Xrotation
									End Site
									{
										OFFSET 0.54008 -0.00000 0.54008
									}
								}
							}
						}
					}
				}
				JOINT RightShoulder
				{
					OFFSET 0 0 0
					CHANNELS 3 Zrotation Yrotation Xrotation
					JOINT RightArm
					{
						OFFSET -3.31725 1.61216 0.35156
						CHANNELS 3 Zrotation Yrotation Xrotation
						JOINT RightForeArm
						{
							OFFSET -4.48913 -0.00000 0.00000
							CHANNELS 3 Zrotation Yrotation Xrotation
							JOINT RightHand
							{
								OFFSET -3.70510 -0.00000 0.00000
								CHANNELS 3 Zrotation Yrotation Xrotation
								JOINT RightFingerBase
								{
									OFFSET 0 0 0
									CHANNELS 3 Zrotation Yrotation Xrotation
									JOINT RightHandIndex1
									{
										OFFSET -0.44914 -0.00000 0.00000
										CHANNELS 3 Zrotation Yrotation Xrotation
										End Site
										{
											OFFSET -0.36211 -0.00000 0.00000
										}
									}
								}
								JOINT RThumb
								{
									OFFSET 0 0 0
									CHANNELS 3 Zrotation Yrotation Xrotation
									End Site
									{
										OFFSET -0.36763 -0.00000 0.36763
									}
								}
							}
						}
					}
				}
			}
		}
	}
}
MOTION
Frames: 12
Frame Time: .0083333
-0.5825 18.6801 5.78 0 0 0 0 0 0 -21 0 0 0 0 0 0 0 0 0 0 0 0 0 0 21 0 0 0 0 0 0 0 0 0 0 0 0 0 0 0 0 0 0 0 0 0 0 -16 0 0 21 0 0 11 0 0 0 -8 0 0 0 0 0 0 0 0 0 0 0 0 0 0 0 0 0 0 0 0 8 0 0 0 0 0 0 0 0 0 0 0 0 0 0 0 0 0
-0.5825 18.6801 5.7800 0.3291 -5.3569 2.3812 0.0000 0.0000 0.0000 -15.9034 -7.9721 -0.0013 1.0450 6.5010 18.2452 1.7038 8.5621 -29.0219 7.7962 -15.9673 -51.8252 0.0000 0.0000 0.0000 0.0000 0.0000 0.0000 0.0000 0.0000 0.0000 -0.0000 -0.0000 0.0000 -0.0000 -0.0000 0.0000 -3.5753 1.2370 1.0578 0.5146 1.5704 -2.4653 2.4716 0.8797 -3.2430 -1.8827 -1.7989 -13.9377 3.1309 -2.8271 22.0403 1.0499 -1.1371 9.3081 0.0000 -0.0000 0.0000 -89.8572 12.2701 32.2378 20.9033 -31.7153 -5.9990 -0.0000 -0.0000 1.1224 5.2653 -20.9962 -1.8912 -7.1250 0.0000 -0.0000 -14.7991 9.4451 12.6094 0.0000 -0.0000 0.0000 88.1553 -19.1528 26.6894 -25.3612 36.5709 -8.5042 0.0000 0.0000 10.6074 -13.2574 -42.7286 9.0827 7.1250 -0.0000 -0.0000 36.2729 -70.4316 -22.9987
-0.5811 18.6802 5.7780 0.3250 -5.3593 2.3990 0.0000 0.0000 0.0000 -15.9050 -8.0050 -0.0178 1.0463 6.5047 18.2561 1.6999 8.5968 -29.0192 7.8067 -15.9752 -51.8633 0.0000 0.0000 0.0000 0.0000 0.0000 0.0000 0.0000 0.0000 0.0000 -0.0000 -0.0000 0.0000 -0.0000 -0.0000 0.0000 -3.5515 1.2421 1.0497 0.5180 1.5782 -2.4740 2.4614 0.8833 -3.2474 -1.7191 -1.7910 -13.8861 3.0255 -2.8297 22.0043 0.9861 -1.1370 9.2820 0.0000 -0.0000 0.0000 -89.8593 12.2781 32.2556 20.9243 -31.7398 -6.0100 -0.0000 -0.0000 1.0998 5.2230 -20.9982 -1.8761 -7.1250 0.0000 -0.0000 -14.8254 9.4462 12.6332 0.0000 -0.0000 0.0000 88.1524 -19.1866 26.6469 -25.3993 36.6094 -8.5269 0.0000 0.0000 10.6310 -13.1625 -42.7252 9.0159 7.1250 -0.0000 -0.0000 36.3675 -70.3973 -23.0373
-0.5800 18.6808 5.7752 0.3370 -5.3281 2.4197 0.0000 0.0000 0.0000 -15.9097 -7.9844 -0.0656 1.0473 6.5078 18.2652 1.6870 8.6065 -28.9400 7.8338 -15.9957 -51.9620 0.0000 0.0000 0.0000 0.0000 0.0000 0.0000 0.0000 0.0000 0.0000 -0.0000 -0.0000 0.0000 -0.0000 -0.0000 0.0000 -3.5561 1.2367 1.0612 0.5150 1.5699 -2.4982 2.4607 0.8801 -3.2785 -1.7076 -1.7883 -13.8775 3.0222 -2.8276 21.9957 0.9833 -1.1356 9.2771 -0.0000 -0.0000 0.0000 -89.8434 12.3116 32.2761 20.9627 -31.7848 -6.0303 -0.0000 -0.0000 1.0711 5.1613 -21.0381 -1.8572 -7.1250 0.0000 -0.0000 -14.8630 9.4121 12.6781 -0.0000 -0.0000 0.0000 88.1335 -19.2496 26.6890 -25.4441 36.6545 -8.5536 0.0000 0.0000 10.5782 -13.0695 -42.8002 8.9634 7.1250 -0.0000 -0.0000 36.6122 -70.4228 -23.2256
-0.5796 18.6816 5.7735 0.3219 -5.3040 2.4337 0.0000 0.0000 0.0000 -15.8769 -7.9350 -0.1144 1.0477 6.5092 18.2692 1.6783 8.5809 -28.8647 7.8497 -16.0076 -52.0195 0.0000 0.0000 0.0000 0.0000 0.0000 0.0000 0.0000 0.0000 0.0000 -0.0000 -0.0000 0.0000 -0.0000 -0.0000 0.0000 -3.5362 1.2226 1.0624 0.5130 1.5514 -2.5165 2.4480 0.8709 -3.2961 -1.6751 -1.7724 -13.8638 3.0210 -2.8130 21.9923 0.9793 -1.1264 9.2725 0.0000 0.0000 0.0000 -89.8023 12.3495 32.3097 21.0173 -31.8486 -6.0591 -0.0000 -0.0000 1.0297 5.0919 -21.0644 -1.8343 -7.1250 0.0000 -0.0000 -14.9058 9.3917 12.7237 0.0000 0.0000 0.0000 88.1387 -19.2546 26.7178 -25.4497 36.6601 -8.5570 0.0000 0.0000 10.5995 -12.5262 -43.0881 8.6301 7.1250 -0.0000 -0.0000 37.7518 -70.4560 -24.0406
-0.5794 18.6817 5.7723 0.3188 -5.3037 2.4362 0.0000 0.0000 0.0000 -15.8648 -7.8656 -0.1509 1.0477 6.5091 18.2690 1.6713 8.5802 -28.8180 7.8817 -16.0315 -52.1354 0.0000 0.0000 0.0000 0.0000 0.0000 0.0000 0.0000 0.0000 0.0000 -0.0000 -0.0000 0.0000 -0.0000 -0.0000 0.0000 -3.5479 1.2069 1.0561 0.5249 1.5306 -2.5134 2.4679 0.8608 -3.2886 -1.6677 -1.7594 -13.9117 2.9994 -2.7925 22.0405 0.9729 -1.1177 9.2972 0.0000 0.0000 0.0000 -89.8134 12.3359 32.2770 21.0396 -31.8745 -6.0708 -0.0000 -0.0000 1.0580 5.0288 -20.9622 -1.8031 -7.1250 0.0000 -0.0000 -14.9473 9.4951 12.7296 0.0000 0.0000 0.0000 88.1153 -19.1959 26.6666 -25.2782 36.4870 -8.4548 0.0000 0.0000 10.4438 -13.0904 -42.7237 8.9653 7.1250 -0.0000 -0.0000 36.4413 -70.3722 -23.0686
-0.5796 18.6811 5.7707 0.3647 -5.3058 2.4177 0.0000 0.0000 0.0000 -15.9175 -7.8281 -0.1558 1.0472 6.5077 18.2649 1.6616 8.6348 -28.7890 7.9284 -16.0664 -52.3045 0.0000 0.0000 0.0000 0.0000 0.0000 0.0000 0.0000 0.0000 0.0000 -0.0000 -0.0000 0.0000 -0.0000 -0.0000 0.0000 -3.6109 1.2038 1.0651 0.5159 1.5243 -2.5066 2.4942 0.8590 -3.2879 -1.6130 -1.6680 -13.8317 3.0111 -2.6789 21.9740 0.9818 -1.0601 9.2555 -0.0000 -0.0000 0.0000 -89.7959 12.3104 32.2849 21.0349 -31.8690 -6.0683 -0.0000 -0.0000 1.0879 4.9737 -20.7344 -1.7647 -7.1250 0.0000 -0.0000 -14.9871 9.7194 12.6958 -0.0000 -0.0000 0.0000 88.0979 -19.1998 26.7901 -25.4027 36.6127 -8.5289 0.0000 0.0000 10.6064 -12.7661 -42.7666 8.7461 7.1250 -0.0000 -0.0000 36.8686 -70.2964 -23.3035
-0.5796 18.6811 5.7698 0.3762 -5.3057 2.3902 0.0000 0.0000 0.0000 -15.9368 -7.8521 -0.1148 1.0460 6.5041 18.2542 1.6620 8.6556 -28.8061 7.9212 -16.0610 -52.2784 0.0000 0.0000 0.0000 0.0000 0.0000 0.0000 0.0000 0.0000 0.0000 -0.0000 -0.0000 0.0000 -0.0000 -0.0000 0.0000 -3.6167 1.2087 1.0831 0.4986 1.5295 -2.5063 2.4789 0.8617 -3.2978 -1.6364 -1.5122 -13.7147 3.0824 -2.4694 21.8688 1.0358 -0.9581 9.1927 -0.0000 -0.0000 0.0000 -89.7276 12.3020 32.3540 21.0267 -31.8595 -6.0640 -0.0000 -0.0000 1.0446 4.9716 -20.6317 -1.7556 -7.1250 0.0000 -0.0000 -14.9908 9.8189 12.6680 -0.0000 -0.0000 0.0000 88.1097 -19.2033 26.8469 -25.3934 36.6033 -8.5234 0.0000 0.0000 10.4315 -13.3837 -42.1493 9.0717 7.1250 -0.0000 -0.0000 35.0376 -70.0313 -21.8524
-0.5795 18.6809 5.7689 0.3582 -5.3005 2.3656 0.0000 0.0000 0.0000 -15.9205 -7.8840 -0.0636 1.0447 6.5001 18.2426 1.6729 8.6047 -28.8448 7.8813 -16.0313 -52.1341 0.0000 0.0000 0.0000 0.0000 0.0000 0.0000 0.0000 0.0000 0.0000 -0.0000 -0.0000 0.0000 -0.0000 -0.0000 0.0000 -3.5891 1.2069 1.0937 0.4959 1.5274 -2.4992 2.4606 0.8597 -3.2954 -1.8798 -1.4700 -13.7786 3.2031 -2.3811 21.9092 1.1287 -0.9229 9.2206 -0.0000 -0.0000 0.0000 -89.6958 12.2844 32.3757 21.0229 -31.8551 -6.0620 -0.0000 -0.0000 0.9775 5.0402 -20.6234 -1.7793 -7.1250 0.0000 -0.0000 -14.9481 9.8221 12.6282 -0.0000 -0.0000 0.0000 88.1183 -19.1901 26.8718 -25.3955 36.6055 -8.5247 0.0000 0.0000 10.3762 -13.2905 -41.5315 8.9012 7.1250 -0.0000 -0.0000 34.0196 -69.5206 -20.7931
-0.5796 18.6806 5.7674 0.3676 -5.2883 2.3531 0.0000 0.0000 0.0000 -15.9300 -7.8830 -0.0524 1.0438 6.4973 18.2344 1.6698 8.6001 -28.8213 7.8945 -16.0411 -52.1817 0.0000 0.0000 0.0000 0.0000 0.0000 0.0000 0.0000 0.0000 0.0000 -0.0000 -0.0000 0.0000 -0.0000 -0.0000 0.0000 -3.5959 1.1995 1.0803 0.4959 1.5182 -2.4842 2.4653 0.8547 -3.2717 -2.1864 -1.5742 -13.9035 3.4089 -2.5041 22.0010 1.2360 -0.9815 9.2862 0.0000 -0.0000 0.0000 -89.6950 12.2737 32.3853 21.0506 -31.8874 -6.0767 -0.0000 -0.0000 0.9257 5.1150 -20.5510 -1.7998 -7.1250 0.0000 -0.0000 -14.9029 9.8868 12.5670 0.0000 -0.0000 0.0000 88.1117 -19.1678 26.9000 -25.3872 36.5972 -8.5197 0.0000 0.0000 10.3612 -13.2834 -41.1783 8.8353 7.1250 -0.0000 -0.0000 33.4124 -69.2402 -20.1896
-0.5791 18.6809 5.7657 0.3805 -5.2813 2.3641 0.0000 0.0000 0.0000 -15.9428 -7.8976 -0.0726 1.0438 6.4975 18.2348 1.6663 8.6236 -28.8130 7.9146 -16.0561 -52.2544 0.0000 0.0000 0.0000 0.0000 0.0000 0.0000 0.0000 0.0000 0.0000 -0.0000 -0.0000 0.0000 -0.0000 -0.0000 0.0000 -3.5979 1.1976 1.0531 0.4929 1.5166 -2.4793 2.4641 0.8535 -3.2512 -2.2832 -1.7045 -13.9856 3.5540 -2.7000 22.0707 1.2784 -1.0638 9.3357 0.0000 0.0000 0.0000 -89.6888 12.2610 32.3887 21.0677 -31.9073 -6.0857 -0.0000 -0.0000 0.9783 5.1246 -20.5432 -1.8025 -7.1250 0.0000 -0.0000 -14.8972 9.8938 12.5596 0.0000 0.0000 0.0000 88.0981 -19.1505 26.9299 -25.3813 36.5912 -8.5162 0.0000 0.0000 10.3371 -13.2864 -41.1583 8.8338 7.1250 -0.0000 -0.0000 33.3748 -69.2253 -20.1543
-0.5786 18.6808 5.7639 0.3715 -5.2786 2.3662 0.0000 0.0000 0.0000 -15.9332 -7.9292 -0.0745 1.0456 6.5028 18.2503 1.6788 8.5818 -28.8689 7.8956 -16.0419 -52.1857 0.0000 0.0000 0.0000 0.0000 0.0000 0.0000 0.0000 0.0000 0.0000 -0.0000 -0.0000 0.0000 -0.0000 -0.0000 0.0000 -3.5710 1.2042 1.0563 0.4925 1.5260 -2.4793 2.4481 0.8575 -3.2528 -1.9630 -1.6409 -13.9077 3.4014 -2.6506 22.0095 1.1780 -1.0321 9.2916 -0.0000 0.0000 0.0000 -89.6803 12.2244 32.3719 21.0433 -31.8788 -6.0728 -0.0000 -0.0000 1.0963 5.0915 -20.5691 -1.7930 -7.1250 0.0000 -0.0000 -14.9173 9.8711 12.5849 -0.0000 0.0000 0.0000 88.1052 -19.1292 26.8425 -25.3101 36.5192 -8.4737 0.0000 0.0000 10.3310 -12.9905 -41.3082 8.6587 7.1250 -0.0000 -0.0000 33.9539 -69.2487 -20.5496
